<svg width="16" height="16" viewBox="0 0 16 16" fill="none"
  xmlns="http://www.w3.org/2000/svg">
  <rect x="1" y="1" width="14" height="14" rx="2" fill="#3172BD"/>
  <path d="M3.44311 5.8025H1.83061V5H5.91061V5.8025H4.29811V11H3.44311V5.8025ZM6.97854 9.47C7.13354 10.035 7.49354 10.3175 8.05854 10.3175C8.35854 10.3175 8.59604 10.2325 8.77104 10.0625C8.94604 9.8875 9.03354 9.6475 9.03354 9.3425C9.03354 9.1275 8.96604 8.945 8.83104 8.795C8.69604 8.645 8.50854 8.545 8.26854 8.495L7.71354 8.3825C7.22854 8.2825 6.86104 8.0875 6.61104 7.7975C6.36604 7.5075 6.24354 7.13 6.24354 6.665C6.24354 6.305 6.32104 5.99 6.47604 5.72C6.63104 5.45 6.84854 5.2425 7.12854 5.0975C7.41354 4.9525 7.74354 4.88 8.11854 4.88C8.67354 4.88 9.11854 5.04 9.45354 5.36C9.78854 5.68 9.96854 6.12 9.99354 6.68H9.21354C9.04354 6.015 8.67854 5.6825 8.11854 5.6825C7.79854 5.6825 7.54604 5.77 7.36104 5.945C7.17604 6.115 7.08354 6.355 7.08354 6.665C7.08354 6.88 7.15104 7.065 7.28604 7.22C7.42604 7.37 7.61604 7.47 7.85604 7.52L8.41104 7.6325C8.89604 7.7325 9.26104 7.9275 9.50604 8.2175C9.75104 8.5075 9.87354 8.8825 9.87354 9.3425C9.87354 9.7025 9.79854 10.0175 9.64854 10.2875C9.49854 10.5525 9.28604 10.7575 9.01104 10.9025C8.73604 11.0475 8.41854 11.12 8.05854 11.12C7.49854 11.12 7.05104 10.9725 6.71604 10.6775C6.38604 10.3825 6.20854 9.98 6.18354 9.47H6.97854ZM11.459 8.1125L10.049 5H10.9865L12.0215 7.3025L12.0965 7.6925H12.179L12.2615 7.3025L13.304 5H14.204L12.794 8.075L14.099 11H13.154L12.239 8.93L12.1565 8.5175H12.0815L11.9915 8.93L11.0615 11H10.154L11.459 8.1125Z" fill="white"/>
</svg>
