<svg width="16" height="16" viewBox="0 0 16 16" fill="none"
  xmlns="http://www.w3.org/2000/svg">
  <rect x="1" y="1" width="14" height="14" rx="2" fill="#3172BD"/>
  <path d="M3.8659 6.8H5.5879V7.521H3.8659V9.649C3.8659 9.887 3.91023 10.0713 3.9989 10.202C4.08757 10.328 4.21123 10.391 4.3699 10.391C4.55657 10.391 4.6989 10.3233 4.7969 10.188C4.89957 10.0527 4.97657 9.83333 5.0279 9.53H5.7069C5.68823 10.048 5.56223 10.4423 5.3289 10.713C5.09557 10.979 4.76657 11.112 4.3419 11.112C3.9499 11.112 3.64423 10.9883 3.4249 10.741C3.20557 10.489 3.0959 10.139 3.0959 9.691V7.521H2.2839V6.8H3.0959V5.708H3.8659V6.8ZM7.15163 9.712C7.21697 9.936 7.32197 10.1063 7.46663 10.223C7.61597 10.335 7.80497 10.391 8.03363 10.391C8.27163 10.391 8.4583 10.3397 8.59363 10.237C8.72897 10.1343 8.79663 9.99433 8.79663 9.817C8.79663 9.691 8.74063 9.586 8.62863 9.502C8.51663 9.41333 8.35797 9.35033 8.15263 9.313L7.73263 9.25C7.30797 9.18467 6.99063 9.047 6.78063 8.837C6.5753 8.62233 6.47263 8.33767 6.47263 7.983C6.47263 7.58633 6.6103 7.27133 6.88563 7.038C7.16563 6.80467 7.5413 6.688 8.01263 6.688C8.5073 6.688 8.8993 6.81867 9.18863 7.08C9.48263 7.34133 9.63897 7.70533 9.65763 8.172H8.95763C8.89697 7.92 8.7873 7.731 8.62863 7.605C8.46997 7.47433 8.26463 7.409 8.01263 7.409C7.7653 7.409 7.57163 7.46033 7.43163 7.563C7.29163 7.66567 7.22163 7.80567 7.22163 7.983C7.22163 8.109 7.27763 8.21633 7.38963 8.305C7.50163 8.389 7.66263 8.44967 7.87263 8.487L8.29263 8.55C8.71263 8.61533 9.0253 8.75533 9.23063 8.97C9.44063 9.18 9.54563 9.46233 9.54563 9.817C9.54563 10.2137 9.40797 10.5287 9.13263 10.762C8.8573 10.9953 8.48863 11.112 8.02663 11.112C7.5553 11.112 7.17963 10.9907 6.89963 10.748C6.61963 10.5007 6.46797 10.1553 6.44463 9.712H7.15163ZM11.3474 9.005L10.1784 6.8H11.0394L11.8934 8.417L11.9494 8.627H12.0194L12.0754 8.417L12.9924 6.8H13.8044L12.5864 8.935L13.7274 11H12.8454L12.0474 9.544L11.9914 9.348H11.9214L11.8654 9.544L11.0744 11H10.2554L11.3474 9.005Z" fill="white"/>
</svg>
