<svg width="16" height="16" viewBox="0 0 16 16" fill="none"
  xmlns="http://www.w3.org/2000/svg">
  <rect x="1" y="1" width="14" height="14" rx="2" fill="#3172BD"/>
  <path d="M5.86227 6.8H7.58427V7.521H5.86227V9.649C5.86227 9.887 5.9066 10.0713 5.99527 10.202C6.08393 10.328 6.2076 10.391 6.36627 10.391C6.55293 10.391 6.69527 10.3233 6.79327 10.188C6.89593 10.0527 6.97293 9.83333 7.02427 9.53H7.70327C7.6846 10.048 7.5586 10.4423 7.32527 10.713C7.09193 10.979 6.76293 11.112 6.33827 11.112C5.94627 11.112 5.6406 10.9883 5.42127 10.741C5.20193 10.489 5.09227 10.139 5.09227 9.691V7.521H4.28027V6.8H5.09227V5.708H5.86227V6.8ZM9.148 9.712C9.21333 9.936 9.31833 10.1063 9.463 10.223C9.61233 10.335 9.80133 10.391 10.03 10.391C10.268 10.391 10.4547 10.3397 10.59 10.237C10.7253 10.1343 10.793 9.99433 10.793 9.817C10.793 9.691 10.737 9.586 10.625 9.502C10.513 9.41333 10.3543 9.35033 10.149 9.313L9.729 9.25C9.30433 9.18467 8.987 9.047 8.777 8.837C8.57167 8.62233 8.469 8.33767 8.469 7.983C8.469 7.58633 8.60667 7.27133 8.882 7.038C9.162 6.80467 9.53767 6.688 10.009 6.688C10.5037 6.688 10.8957 6.81867 11.185 7.08C11.479 7.34133 11.6353 7.70533 11.654 8.172H10.954C10.8933 7.92 10.7837 7.731 10.625 7.605C10.4663 7.47433 10.261 7.409 10.009 7.409C9.76167 7.409 9.568 7.46033 9.428 7.563C9.288 7.66567 9.218 7.80567 9.218 7.983C9.218 8.109 9.274 8.21633 9.386 8.305C9.498 8.389 9.659 8.44967 9.869 8.487L10.289 8.55C10.709 8.61533 11.0217 8.75533 11.227 8.97C11.437 9.18 11.542 9.46233 11.542 9.817C11.542 10.2137 11.4043 10.5287 11.129 10.762C10.8537 10.9953 10.485 11.112 10.023 11.112C9.55167 11.112 9.176 10.9907 8.896 10.748C8.616 10.5007 8.46433 10.1553 8.441 9.712H9.148Z" fill="white"/>
</svg>
